<svg xmlns="http://www.w3.org/2000/svg" data-name="Warstwa 1" viewBox="0 0 100 125" x="0px" y="0px"><title>hand_two_fingers</title><path d="M55.17,60H70.83L74,56.83V40.17L70.83,37h-7l-3-3H54V9.17L50.83,6H43.17L40,9.17V12H33.17L30,15.17V52H25.17L20,57.17V76.83L37.17,94H56.83L74,76.83V66H70v9.17L55.17,90H38.83L24,75.17V58.83L26.83,56H41.17l.83.83v2.34L39.17,62H30v4H40.83L46,60.83V55.17L42.83,52H34V16.83l.83-.83h4.34l.83.83V44h4V10.83l.83-.83h4.34l.83.83v44ZM64,41h5.17l.83.83V55.17l-.83.83H64ZM54,38h5.17l.83.83V56H56.83L54,53.17Z"/></svg>